#N canvas 563 251 830 556 10;
#X obj 214 160 +~ 0.25;
#X obj 214 182 cos~;
#X obj 242 502 dac~;
#X obj 260 112 r reset;
#X obj 52 91 s reset;
#X obj 59 18 bng 15 250 50 0 empty empty empty 17 7 0 10 -262144 -1
-1;
#X obj 242 16 r reset;
#X obj 191 43 osc~ 0.2;
#X obj 190 65 *~ 3;
#X obj 359 159 +~ 0.25;
#X obj 359 181 cos~;
#X obj 419 108 r reset;
#X obj 394 13 r reset;
#X obj 263 218 *~;
#X obj 300 319 cos~;
#X obj 303 284 +~ 0.25;
#X obj 343 40 osc~ 0.1;
#X obj 191 87 +~ 40;
#X obj 343 84 +~ 35;
#X obj 291 250 *~ 1;
#X obj 342 62 *~ 1;
#X obj 286 393 *~ 0.5;
#X obj 215 138 osc~ 40;
#X obj 287 362 lop~ 100;
#X obj 197 363 lop~ 200;
#N canvas 0 50 450 250 (subpatch) 0;
#X array wave 485100 float 2;
#X coords 0 1 485100 -1 200 140 1 0 0;
#X restore 446 231 graph;
#X obj 684 294 bng 32 250 50 0 empty empty empty 17 7 0 10 -262144
-1 -1;
#N canvas 544 611 1242 448 export-audio 0;
#X obj 209 19 r duration;
#X obj 13 162 soundfiler;
#X obj 13 15 inlet save;
#X obj 273 79 samplerate~;
#X obj 244 116 *;
#X obj 209 81 / 1000;
#X obj 244 167 array size wave;
#X obj 209 41 t f b;
#X text 307 20 <- we receive duration when sound is triggered;
#X text 379 78 <- we convert duration in ms to sample count by multiplying
samplerate (sample count per seconds) by duration in seconds., f 39
;
#X obj 13 56 savepanel;
#X msg 13 101 write -wave \$1 wave;
#X obj 97 55 r export-wave;
#X obj 745 18 inlet save-incremental;
#X obj 854 109 savepanel;
#X obj 777 157 i 0;
#X obj 813 158 + 1;
#X msg 795 97 0;
#X obj 745 125 t b b;
#X obj 745 226 symbol;
#X obj 784 200 makefilename;
#X msg 854 158 set \$1-%d.wav;
#X msg 745 252 write -wave \$1 wave;
#X obj 745 275 soundfiler;
#X obj 745 64 route next begin;
#X text 937 27 Save sound as new file (incremental) Call begin to setup
basename Call next to save a new file, f 39;
#X connect 0 0 7 0;
#X connect 2 0 10 0;
#X connect 3 0 4 1;
#X connect 4 0 6 0;
#X connect 5 0 4 0;
#X connect 7 0 5 0;
#X connect 7 1 3 0;
#X connect 10 0 11 0;
#X connect 11 0 1 0;
#X connect 12 0 11 0;
#X connect 13 0 24 0;
#X connect 14 0 21 0;
#X connect 15 0 16 0;
#X connect 15 0 20 0;
#X connect 16 0 15 1;
#X connect 17 0 15 1;
#X connect 18 0 19 0;
#X connect 18 1 15 0;
#X connect 19 0 22 0;
#X connect 20 0 19 1;
#X connect 21 0 20 0;
#X connect 22 0 23 0;
#X connect 24 0 18 0;
#X connect 24 1 17 0;
#X connect 24 1 14 0;
#X restore 684 356 pd export-audio;
#X obj 359 487 tabwrite~ wave;
#X obj 359 413 r trigger;
#X text 676 271 Single;
#X text 710 246 EXPORT WAV;
#X obj 545 127 s duration;
#X obj 100 56 s trigger;
#X obj 196 393 *~ 0.3;
#X msg 43 53 0;
#X obj 358 137 osc~ 40.1;
#X msg 546 73 11000;
#X connect 0 0 1 0;
#X connect 1 0 13 0;
#X connect 1 0 23 0;
#X connect 1 0 24 0;
#X connect 3 0 22 1;
#X connect 5 0 35 0;
#X connect 5 0 33 0;
#X connect 6 0 7 1;
#X connect 7 0 8 0;
#X connect 8 0 17 0;
#X connect 9 0 10 0;
#X connect 10 0 13 1;
#X connect 11 0 36 1;
#X connect 12 0 16 1;
#X connect 13 0 19 0;
#X connect 13 0 24 0;
#X connect 14 0 23 0;
#X connect 14 0 24 0;
#X connect 15 0 14 0;
#X connect 16 0 20 0;
#X connect 19 0 15 0;
#X connect 20 0 18 0;
#X connect 22 0 0 0;
#X connect 23 0 21 0;
#X connect 24 0 34 0;
#X connect 26 0 27 0;
#X connect 29 0 28 0;
#X connect 34 0 2 0;
#X connect 34 0 28 0;
#X connect 34 0 2 1;
#X connect 35 0 4 0;
#X connect 36 0 9 0;
#X connect 37 0 32 0;
